<mxfile host="65bd71144e">
    <diagram id="qVv9rkjGiB15dYOgQkgS" name="Page-1">
        <mxGraphModel dx="2957" dy="947" grid="1" gridSize="10" guides="1" tooltips="1" connect="1" arrows="1" fold="1" page="1" pageScale="1" pageWidth="850" pageHeight="1100" math="0" shadow="0">
            <root>
                <mxCell id="0"/>
                <mxCell id="1" parent="0"/>
                <mxCell id="17" value="" style="rounded=0;whiteSpace=wrap;html=1;" parent="1" vertex="1">
                    <mxGeometry x="-10" y="130" width="795" height="200" as="geometry"/>
                </mxCell>
                <mxCell id="4" style="edgeStyle=none;html=1;exitX=0.5;exitY=1;exitDx=0;exitDy=0;entryX=0.5;entryY=0;entryDx=0;entryDy=0;" parent="1" source="3" target="14" edge="1">
                    <mxGeometry relative="1" as="geometry">
                        <mxPoint x="95" y="230" as="targetPoint"/>
                    </mxGeometry>
                </mxCell>
                <mxCell id="3" value="Head Variable" style="text;html=1;strokeColor=none;fillColor=none;align=center;verticalAlign=middle;whiteSpace=wrap;rounded=0;" parent="1" vertex="1">
                    <mxGeometry x="5" y="180" width="110" height="30" as="geometry"/>
                </mxCell>
                <mxCell id="10" value="" style="edgeStyle=none;html=1;" parent="1" target="6" edge="1">
                    <mxGeometry relative="1" as="geometry">
                        <mxPoint x="225" y="260" as="sourcePoint"/>
                    </mxGeometry>
                </mxCell>
                <mxCell id="13" style="edgeStyle=none;html=1;exitX=1;exitY=0.5;exitDx=0;exitDy=0;entryX=0;entryY=0.5;entryDx=0;entryDy=0;" parent="1" target="8" edge="1">
                    <mxGeometry relative="1" as="geometry">
                        <mxPoint x="435" y="260" as="sourcePoint"/>
                    </mxGeometry>
                </mxCell>
                <mxCell id="14" value="NULL" style="text;html=1;strokeColor=none;fillColor=none;align=center;verticalAlign=middle;whiteSpace=wrap;rounded=0;" parent="1" vertex="1">
                    <mxGeometry x="80" y="235" width="60" height="30" as="geometry"/>
                </mxCell>
                <mxCell id="16" value="&lt;font style=&quot;font-size: 18px;&quot;&gt;Append Algorithm (empty start)&lt;/font&gt;" style="text;html=1;strokeColor=none;fillColor=none;align=center;verticalAlign=middle;whiteSpace=wrap;rounded=0;" parent="1" vertex="1">
                    <mxGeometry x="247.5" y="150" width="255" height="30" as="geometry"/>
                </mxCell>
                <mxCell id="84" value="" style="rounded=0;whiteSpace=wrap;html=1;" vertex="1" parent="1">
                    <mxGeometry x="-10" y="390" width="795" height="200" as="geometry"/>
                </mxCell>
                <mxCell id="92" style="edgeStyle=none;html=1;exitX=0.5;exitY=1;exitDx=0;exitDy=0;entryX=0;entryY=0;entryDx=0;entryDy=0;" edge="1" parent="1" source="86" target="89">
                    <mxGeometry relative="1" as="geometry"/>
                </mxCell>
                <mxCell id="86" value="Head Variable" style="text;html=1;strokeColor=none;fillColor=none;align=center;verticalAlign=middle;whiteSpace=wrap;rounded=0;" vertex="1" parent="1">
                    <mxGeometry x="5" y="450" width="110" height="30" as="geometry"/>
                </mxCell>
                <mxCell id="87" value="NULL" style="text;html=1;strokeColor=none;fillColor=none;align=center;verticalAlign=middle;whiteSpace=wrap;rounded=0;" vertex="1" parent="1">
                    <mxGeometry x="290" y="505" width="60" height="30" as="geometry"/>
                </mxCell>
                <mxCell id="88" value="&lt;font style=&quot;font-size: 18px;&quot;&gt;Append Algorithm&lt;/font&gt;" style="text;html=1;strokeColor=none;fillColor=none;align=center;verticalAlign=middle;whiteSpace=wrap;rounded=0;" vertex="1" parent="1">
                    <mxGeometry x="247.5" y="420" width="255" height="30" as="geometry"/>
                </mxCell>
                <mxCell id="89" value="Data From&amp;nbsp;&lt;br&gt;Argument List" style="rounded=0;whiteSpace=wrap;html=1;" vertex="1" parent="1">
                    <mxGeometry x="80" y="490" width="80" height="60" as="geometry"/>
                </mxCell>
                <mxCell id="91" style="edgeStyle=none;html=1;exitX=1;exitY=0.5;exitDx=0;exitDy=0;entryX=0;entryY=0.5;entryDx=0;entryDy=0;" edge="1" parent="1" source="90" target="87">
                    <mxGeometry relative="1" as="geometry"/>
                </mxCell>
                <mxCell id="90" value="Next Node" style="rounded=0;whiteSpace=wrap;html=1;" vertex="1" parent="1">
                    <mxGeometry x="160" y="490" width="90" height="60" as="geometry"/>
                </mxCell>
                <mxCell id="173" value="" style="rounded=0;whiteSpace=wrap;html=1;" vertex="1" parent="1">
                    <mxGeometry x="870" y="130" width="795" height="250" as="geometry"/>
                </mxCell>
                <mxCell id="174" value="Data (string)" style="rounded=0;whiteSpace=wrap;html=1;" vertex="1" parent="1">
                    <mxGeometry x="925" y="210" width="80" height="60" as="geometry"/>
                </mxCell>
                <mxCell id="175" style="edgeStyle=none;html=1;exitX=0.5;exitY=1;exitDx=0;exitDy=0;entryX=0.5;entryY=0;entryDx=0;entryDy=0;" edge="1" parent="1" source="176" target="174">
                    <mxGeometry relative="1" as="geometry"/>
                </mxCell>
                <mxCell id="176" value="Head Variable" style="text;html=1;strokeColor=none;fillColor=none;align=center;verticalAlign=middle;whiteSpace=wrap;rounded=0;" vertex="1" parent="1">
                    <mxGeometry x="875" y="160" width="110" height="30" as="geometry"/>
                </mxCell>
                <mxCell id="177" value="" style="edgeStyle=none;html=1;" edge="1" parent="1" source="178" target="179">
                    <mxGeometry relative="1" as="geometry"/>
                </mxCell>
                <mxCell id="178" value="Next Node" style="rounded=0;whiteSpace=wrap;html=1;" vertex="1" parent="1">
                    <mxGeometry x="1005" y="210" width="90" height="60" as="geometry"/>
                </mxCell>
                <mxCell id="179" value="Data (string)" style="rounded=0;whiteSpace=wrap;html=1;" vertex="1" parent="1">
                    <mxGeometry x="1135" y="210" width="80" height="60" as="geometry"/>
                </mxCell>
                <mxCell id="180" style="edgeStyle=none;html=1;exitX=1;exitY=0.5;exitDx=0;exitDy=0;entryX=0;entryY=0.5;entryDx=0;entryDy=0;" edge="1" parent="1" source="181" target="185">
                    <mxGeometry relative="1" as="geometry">
                        <mxPoint x="1355" y="240" as="targetPoint"/>
                    </mxGeometry>
                </mxCell>
                <mxCell id="181" value="Next Node" style="rounded=0;whiteSpace=wrap;html=1;" vertex="1" parent="1">
                    <mxGeometry x="1215" y="210" width="90" height="60" as="geometry"/>
                </mxCell>
                <mxCell id="185" value="NULL" style="text;html=1;strokeColor=none;fillColor=none;align=center;verticalAlign=middle;whiteSpace=wrap;rounded=0;" vertex="1" parent="1">
                    <mxGeometry x="1370" y="225" width="60" height="30" as="geometry"/>
                </mxCell>
                <mxCell id="186" value="&lt;span style=&quot;font-size: 18px;&quot;&gt;Append Algorithm (non-empty start)&lt;/span&gt;" style="text;html=1;strokeColor=none;fillColor=none;align=center;verticalAlign=middle;whiteSpace=wrap;rounded=0;" vertex="1" parent="1">
                    <mxGeometry x="1070" y="130" width="320" height="30" as="geometry"/>
                </mxCell>
                <mxCell id="187" style="edgeStyle=none;html=1;exitX=0.5;exitY=0;exitDx=0;exitDy=0;entryX=0.5;entryY=1;entryDx=0;entryDy=0;fontSize=12;" edge="1" parent="1" source="188" target="174">
                    <mxGeometry relative="1" as="geometry"/>
                </mxCell>
                <mxCell id="188" value="&lt;font size=&quot;3&quot;&gt;Current Variable&lt;/font&gt;" style="text;html=1;strokeColor=none;fillColor=none;align=center;verticalAlign=middle;whiteSpace=wrap;rounded=0;fontSize=18;" vertex="1" parent="1">
                    <mxGeometry x="920" y="330" width="130" height="30" as="geometry"/>
                </mxCell>
                <mxCell id="189" value="Count Variable: 1" style="text;html=1;strokeColor=none;fillColor=none;align=center;verticalAlign=middle;whiteSpace=wrap;rounded=0;fontSize=12;" vertex="1" parent="1">
                    <mxGeometry x="1135" y="330" width="115" height="30" as="geometry"/>
                </mxCell>
                <mxCell id="190" value="" style="rounded=0;whiteSpace=wrap;html=1;" vertex="1" parent="1">
                    <mxGeometry x="870" y="430" width="795" height="250" as="geometry"/>
                </mxCell>
                <mxCell id="191" value="Data (string)" style="rounded=0;whiteSpace=wrap;html=1;" vertex="1" parent="1">
                    <mxGeometry x="925" y="510" width="80" height="60" as="geometry"/>
                </mxCell>
                <mxCell id="192" style="edgeStyle=none;html=1;exitX=0.5;exitY=1;exitDx=0;exitDy=0;entryX=0.5;entryY=0;entryDx=0;entryDy=0;" edge="1" parent="1" source="193" target="191">
                    <mxGeometry relative="1" as="geometry"/>
                </mxCell>
                <mxCell id="193" value="Head Variable" style="text;html=1;strokeColor=none;fillColor=none;align=center;verticalAlign=middle;whiteSpace=wrap;rounded=0;" vertex="1" parent="1">
                    <mxGeometry x="875" y="460" width="110" height="30" as="geometry"/>
                </mxCell>
                <mxCell id="194" value="" style="edgeStyle=none;html=1;" edge="1" parent="1" source="195" target="196">
                    <mxGeometry relative="1" as="geometry"/>
                </mxCell>
                <mxCell id="195" value="Next Node" style="rounded=0;whiteSpace=wrap;html=1;" vertex="1" parent="1">
                    <mxGeometry x="1005" y="510" width="90" height="60" as="geometry"/>
                </mxCell>
                <mxCell id="196" value="Data (string)" style="rounded=0;whiteSpace=wrap;html=1;" vertex="1" parent="1">
                    <mxGeometry x="1135" y="510" width="80" height="60" as="geometry"/>
                </mxCell>
                <mxCell id="197" style="edgeStyle=none;html=1;exitX=1;exitY=0.5;exitDx=0;exitDy=0;entryX=0;entryY=0.5;entryDx=0;entryDy=0;" edge="1" parent="1" source="198">
                    <mxGeometry relative="1" as="geometry">
                        <mxPoint x="1355" y="540" as="targetPoint"/>
                    </mxGeometry>
                </mxCell>
                <mxCell id="198" value="Next Node" style="rounded=0;whiteSpace=wrap;html=1;" vertex="1" parent="1">
                    <mxGeometry x="1215" y="510" width="90" height="60" as="geometry"/>
                </mxCell>
                <mxCell id="202" value="NULL" style="text;html=1;strokeColor=none;fillColor=none;align=center;verticalAlign=middle;whiteSpace=wrap;rounded=0;" vertex="1" parent="1">
                    <mxGeometry x="1350" y="525" width="60" height="30" as="geometry"/>
                </mxCell>
                <mxCell id="203" value="&lt;font style=&quot;font-size: 18px;&quot;&gt;Step 2 - Traverse to the end of the list &lt;br&gt;(loop until current is at the last node)&lt;/font&gt;" style="text;html=1;strokeColor=none;fillColor=none;align=center;verticalAlign=middle;whiteSpace=wrap;rounded=0;" vertex="1" parent="1">
                    <mxGeometry x="1050" y="440" width="390" height="30" as="geometry"/>
                </mxCell>
                <mxCell id="204" style="edgeStyle=none;html=1;exitX=0.5;exitY=0;exitDx=0;exitDy=0;entryX=0.5;entryY=1;entryDx=0;entryDy=0;fontSize=12;" edge="1" parent="1" source="205" target="196">
                    <mxGeometry relative="1" as="geometry"/>
                </mxCell>
                <mxCell id="205" value="&lt;font size=&quot;3&quot;&gt;Current Variable&lt;/font&gt;" style="text;html=1;strokeColor=none;fillColor=none;align=center;verticalAlign=middle;whiteSpace=wrap;rounded=0;fontSize=18;" vertex="1" parent="1">
                    <mxGeometry x="920" y="630" width="130" height="30" as="geometry"/>
                </mxCell>
                <mxCell id="207" value="" style="rounded=0;whiteSpace=wrap;html=1;" vertex="1" parent="1">
                    <mxGeometry x="870" y="740" width="795" height="250" as="geometry"/>
                </mxCell>
                <mxCell id="208" value="Data (string)" style="rounded=0;whiteSpace=wrap;html=1;" vertex="1" parent="1">
                    <mxGeometry x="925" y="820" width="80" height="60" as="geometry"/>
                </mxCell>
                <mxCell id="209" style="edgeStyle=none;html=1;exitX=0.5;exitY=1;exitDx=0;exitDy=0;entryX=0.5;entryY=0;entryDx=0;entryDy=0;" edge="1" parent="1" source="210" target="208">
                    <mxGeometry relative="1" as="geometry"/>
                </mxCell>
                <mxCell id="210" value="Head Variable" style="text;html=1;strokeColor=none;fillColor=none;align=center;verticalAlign=middle;whiteSpace=wrap;rounded=0;" vertex="1" parent="1">
                    <mxGeometry x="875" y="770" width="110" height="30" as="geometry"/>
                </mxCell>
                <mxCell id="211" value="" style="edgeStyle=none;html=1;" edge="1" parent="1" source="212" target="213">
                    <mxGeometry relative="1" as="geometry"/>
                </mxCell>
                <mxCell id="212" value="Next Node" style="rounded=0;whiteSpace=wrap;html=1;" vertex="1" parent="1">
                    <mxGeometry x="1005" y="820" width="90" height="60" as="geometry"/>
                </mxCell>
                <mxCell id="213" value="Data (string)" style="rounded=0;whiteSpace=wrap;html=1;" vertex="1" parent="1">
                    <mxGeometry x="1135" y="820" width="80" height="60" as="geometry"/>
                </mxCell>
                <mxCell id="214" style="edgeStyle=none;html=1;exitX=1;exitY=0.5;exitDx=0;exitDy=0;entryX=0;entryY=0.5;entryDx=0;entryDy=0;" edge="1" parent="1" source="215">
                    <mxGeometry relative="1" as="geometry">
                        <mxPoint x="1355" y="850" as="targetPoint"/>
                    </mxGeometry>
                </mxCell>
                <mxCell id="215" value="Next Node" style="rounded=0;whiteSpace=wrap;html=1;" vertex="1" parent="1">
                    <mxGeometry x="1215" y="820" width="90" height="60" as="geometry"/>
                </mxCell>
                <mxCell id="220" value="&lt;font style=&quot;font-size: 18px;&quot;&gt;Step 3 - add new node to the end of the list&lt;/font&gt;" style="text;html=1;strokeColor=none;fillColor=none;align=center;verticalAlign=middle;whiteSpace=wrap;rounded=0;" vertex="1" parent="1">
                    <mxGeometry x="1020" y="740" width="450" height="30" as="geometry"/>
                </mxCell>
                <mxCell id="221" style="edgeStyle=none;html=1;exitX=0.5;exitY=0;exitDx=0;exitDy=0;entryX=0.5;entryY=1;entryDx=0;entryDy=0;fontSize=12;" edge="1" parent="1" source="222" target="213">
                    <mxGeometry relative="1" as="geometry">
                        <mxPoint x="1395" y="880" as="targetPoint"/>
                    </mxGeometry>
                </mxCell>
                <mxCell id="222" value="&lt;font size=&quot;3&quot;&gt;Current Variable&lt;/font&gt;" style="text;html=1;strokeColor=none;fillColor=none;align=center;verticalAlign=middle;whiteSpace=wrap;rounded=0;fontSize=18;" vertex="1" parent="1">
                    <mxGeometry x="920" y="940" width="130" height="30" as="geometry"/>
                </mxCell>
                <mxCell id="223" value="Count Variable: 3" style="text;html=1;strokeColor=none;fillColor=none;align=center;verticalAlign=middle;whiteSpace=wrap;rounded=0;fontSize=12;" vertex="1" parent="1">
                    <mxGeometry x="1135" y="940" width="115" height="30" as="geometry"/>
                </mxCell>
                <mxCell id="224" value="Assign the new node to current.Next" style="text;html=1;strokeColor=none;fillColor=none;align=center;verticalAlign=middle;whiteSpace=wrap;rounded=0;fontSize=12;" vertex="1" parent="1">
                    <mxGeometry x="1435" y="920" width="115" height="50" as="geometry"/>
                </mxCell>
                <mxCell id="227" value="Data from argument list" style="rounded=0;whiteSpace=wrap;html=1;" vertex="1" parent="1">
                    <mxGeometry x="1350" y="820" width="80" height="60" as="geometry"/>
                </mxCell>
                <mxCell id="231" style="edgeStyle=none;html=1;exitX=1;exitY=0.5;exitDx=0;exitDy=0;entryX=0;entryY=0.5;entryDx=0;entryDy=0;" edge="1" parent="1" source="228" target="229">
                    <mxGeometry relative="1" as="geometry"/>
                </mxCell>
                <mxCell id="228" value="Next Node" style="rounded=0;whiteSpace=wrap;html=1;" vertex="1" parent="1">
                    <mxGeometry x="1430" y="820" width="90" height="60" as="geometry"/>
                </mxCell>
                <mxCell id="229" value="NULL" style="text;html=1;strokeColor=none;fillColor=none;align=center;verticalAlign=middle;whiteSpace=wrap;rounded=0;" vertex="1" parent="1">
                    <mxGeometry x="1560" y="835" width="60" height="30" as="geometry"/>
                </mxCell>
            </root>
        </mxGraphModel>
    </diagram>
</mxfile>